<svg viewBox="0 0 73 30" xmlns="http://www.w3.org/2000/svg" xmlns:xlink="http://www.w3.org/1999/xlink">
                        <title>logo-sixt-compact-black</title>
                        <defs>
                            <path id="a" d="M0 .238h73v29.45H0V.237z"></path>
                        </defs>
                        <g fill="none" fill-rule="evenodd">
                            <g>
                                <mask id="b" fill="#fff">
                                    <use xlink:href="#a"></use>
                                </mask>
                                <path d="M32.9 13.16v13.91l7.008-10.407-3.288-4.306c2.747-.758 5.24-1.93 7.413-3.632l2.117 2.682 4.02-6.07H73v6.89h-5.136v16.816l-17.697.006-4.528-6.767-4.71 6.766H24.284v-4.627c-1.196 3.27-4.974 5.264-12.464 5.264C.71 29.687.17 25.76 0 21.262h8.786c.03 1.343.255 2.316.794 2.954.567.637 1.332.973 2.466.973 1.785 0 3.712-.504 3.712-2.45 0-.437-.14-.807-.368-1.11-1.162-1.543-10.94-2.684-13.69-5.537C.596 14.95.256 13.24.256 11.863c0-5.303 4.11-7.685 12.3-7.685 8.702 0 10.762 3.045 10.875 8.046h-8.46c-.057-1.343-.46-2.39-1.05-2.878-.57-.47-1.064-.688-1.93-.67-1.815.034-2.78.805-2.78 2.046 0 .37.115.84.37 1.108 1.332 1.51 10.798 2.585 13.52 5.47.43.458.87 1.054 1.183 1.882V13.6c2.81.104 5.735.012 8.616-.44zm22.214-.915L51.9 16.76l7.426 10.86V12.245h-4.212z" fill="#1D1D1B" mask="url(#b)"></path>
                                <path d="M24.28 5.337c8.775.646 13.714-1.837 15.41-5.1h8.957c-2.694 7.79-11.094 12.67-24.366 12.003V5.337z" fill="#EF7D00" mask="url(#b)"></path>
                            </g>
                        </g>
                    </svg>