<svg width="117px" height="48px" viewBox="0 0 117 48" version="1.1" xmlns="http://www.w3.org/2000/svg" xmlns:xlink="http://www.w3.org/1999/xlink" xmlns:sketch="http://www.bohemiancoding.com/sketch/ns">
                    <!-- Generator: sketchtool 3.5.1 (25234) - http://www.bohemiancoding.com/sketch -->
                    <title>logo-sixt</title>
                    <desc>Created with sketchtool.</desc>
                    <defs>
                        <path id="path-1" d="M0,0.3822 L117,0.3822 L117,47.58 L0,47.58 L0,0.3822 Z"></path>
                    </defs>
                    <g id="01_Components--SIXT" stroke="none" stroke-width="1" fill="none" fill-rule="evenodd" sketch:type="MSPage">
                        <g id="01_01-COMPONENTS-.header-D" sketch:type="MSArtboardGroup" transform="translate(-180.000000, -543.000000)">
                            <g id="01_01-.header" sketch:type="MSLayerGroup" transform="translate(-12.000000, 331.000000)">
                                <g id=".header-home">
                                    <g id="hr-header-home-default" transform="translate(12.000000, 142.000000)">
                                        <g id="01_01-.header_EN">
                                            <g id="navigation-default">
                                                <g id="navi.main">
                                                    <g id="container-bg">
                                                        <g></g>
                                                    </g>
                                                    <g id="logo-sixt" transform="translate(180.000000, 70.000000)">
                                                        <mask id="mask-2" sketch:name="Clip 2" fill="white">
                                                            <use xlink:href="#path-1"></use>
                                                        </mask>
                                                        <g id="Clip-2"></g>
                                                        <path d="M52.728936,21.094398 L52.728936,43.386798 L63.961716,26.705718 L58.692816,19.805838 C63.094356,18.590598 67.089516,16.712358 70.573776,13.984698 L73.966776,18.282498 L80.408016,8.553558 L117.000156,8.553558 L117.000156,19.596798 L108.768036,19.596798 L108.768036,46.548138 L80.404896,46.558278 L73.146996,35.713158 L65.602056,46.558278 L38.919816,46.558278 L38.919816,39.143598 C37.001796,44.386758 30.946656,47.580078 18.942456,47.580078 C1.135836,47.580078 0.272376,41.286258 0.000156,34.077498 L14.081496,34.077498 C14.127516,36.229518 14.490996,37.789518 15.353676,38.811318 C16.262376,39.833118 17.488536,40.371318 19.305936,40.371318 C22.167756,40.371318 25.256556,39.564798 25.256556,36.444018 C25.256556,35.745138 25.029576,35.153118 24.666096,34.668738 C22.803456,32.194578 7.131696,30.365478 2.725476,25.792338 C0.954096,23.963238 0.408876,21.219978 0.408876,19.014138 C0.408876,10.514478 6.995196,6.695598 20.123376,6.695598 C34.068996,6.695598 37.370736,11.576838 37.552476,19.592118 L23.991396,19.592118 C23.900916,17.440098 23.256636,15.759198 22.311276,14.979978 C21.397116,14.226498 20.604636,13.876278 19.214676,13.903578 C16.308396,13.960518 14.763216,15.195258 14.763216,17.185038 C14.763216,17.777058 14.944956,18.530538 15.353676,18.960318 C17.488536,21.381438 32.661096,23.102898 37.022076,27.729078 C37.713936,28.461498 38.419836,29.416998 38.919816,30.742998 L38.919816,21.797178 C43.424316,21.964098 48.111336,21.816678 52.728936,21.094398 L52.728936,21.094398 Z M88.332816,19.625658 L83.181696,26.860938 L95.083716,44.268198 L95.083716,19.625658 L88.332816,19.625658 Z" id="Fill-1" fill="#FFFFFF" sketch:type="MSShapeGroup" mask="url(#mask-2)"></path>
                                                        <path d="M38.916384,8.553792 C52.978224,9.589632 60.894444,5.610072 63.611184,0.381732 L77.968644,0.381732 C73.650564,12.865632 60.186984,20.687472 38.916384,19.617312 L38.916384,8.553792 Z" id="Fill-4" fill="#EF7D00" sketch:type="MSShapeGroup" mask="url(#mask-2)"></path>
                                                    </g>
                                                </g>
                                            </g>
                                        </g>
                                    </g>
                                </g>
                            </g>
                        </g>
                    </g>
                </svg>